<?xml version="1.0" encoding="UTF-8"?>
<svg width="98px" height="30px" viewBox="0 0 98 30" version="1.1" xmlns="http://www.w3.org/2000/svg" xmlns:xlink="http://www.w3.org/1999/xlink">
    <!-- Generator: Sketch 42 (36781) - http://www.bohemiancoding.com/sketch -->
    <title>TTX-RPE-Logo4c_rsg</title>
    <desc>Created with Sketch.</desc>
    <defs></defs>
    <g id="ttx_website_mockup" stroke="none" stroke-width="1" fill="none" fill-rule="evenodd">
        <g id="contactUs" transform="translate(-26.000000, -26.000000)">
            <g id="navBar" transform="translate(20.000000, 0.000000)">
                <g id="logo" transform="translate(6.000000, 26.000000)">
                    <g id="TTX-RPE-Logo4c_rsg">
                        <path d="M96.6392,25.9004 C97.3016,25.9004 97.8352,26.438 97.8352,27.1044 C97.8352,27.7708 97.3016,28.3088 96.6392,28.3088 C95.9764,28.3088 95.442,27.7708 95.442,27.1044 C95.442,26.438 95.9764,25.9004 96.6392,25.9004 Z M96.6392,28.092 C97.1868,28.092 97.6064,27.6692 97.6064,27.1044 C97.6064,26.5396 97.1868,26.1168 96.6392,26.1168 C96.0908,26.1168 95.6704,26.5396 95.6704,27.1044 C95.6704,27.6692 96.0908,28.092 96.6392,28.092 Z M96.1812,26.3972 L96.7196,26.3972 C97.0392,26.3972 97.2,26.5256 97.2,26.7932 C97.2,27.02 97.0556,27.1824 96.8376,27.1824 L97.2368,27.8084 L96.9952,27.8084 L96.608,27.1824 L96.41,27.1824 L96.41,27.8084 L96.1812,27.8084 L96.1812,26.3972 Z M96.41,27.0028 L96.682,27.0028 C96.8572,27.0028 96.972,26.9656 96.972,26.7832 C96.972,26.624 96.8572,26.5764 96.682,26.5764 L96.41,26.5764 L96.41,27.0028 L96.41,27.0028 Z" id="Fill-1" fill="#9E2723"></path>
                        <path d="M32.5028,0.174 C31.9148,0.174 31.7188,0.4396 31.64,0.54 C31.4168,0.8236 30.366,2.1508 30.1972,2.3396 C30.0084,2.5528 29.5724,2.5136 29.4076,2.3396 C29.25,2.1752 27.9552,0.6104 27.8832,0.518 C27.8208,0.4396 27.6352,0.174 27.0328,0.174 C26.4432,0.174 0.7876,0.1812 0.7876,0.1812 C0.7876,0.1812 0.028,0.1812 0.026,0.9448 L6.26214305e-13,8.4176 C6.26214305e-13,8.4176 -0.0032,9.1808 0.7564,9.1808 L9.7672,9.1808 C9.7672,9.1808 10.526,9.1808 10.526,9.9448 L10.526,28.984 C10.526,28.984 10.526,29.7472 11.2852,29.7472 L19.6328,29.7472 C19.6328,29.7472 20.3912,29.7472 20.3912,28.984 L20.3912,9.9448 C20.3912,9.9448 20.3912,9.1808 21.15,9.1808 L38.9836,9.1808 C38.9836,9.1808 39.7428,9.1808 39.7428,9.9448 L39.7428,28.984 C39.7428,28.984 39.7428,29.7472 40.5008,29.7472 L48.8484,29.7472 C48.8484,29.7472 49.608,29.7472 49.608,28.984 L49.608,9.9448 C49.608,9.9448 49.608,9.1808 50.3656,9.1816 C50.3656,9.1816 63.2196,9.1868 64.3624,9.1868 C66.0256,9.1868 66.4244,9.2388 66.9916,9.928 C67.408,10.4344 70.3416,14.2316 70.3416,14.2316 C70.8092,14.8316 70.346,15.4364 70.346,15.4364 L59.872,29.1144 C59.408,29.7196 60.1664,29.7196 60.1664,29.7196 L62.408,29.7196 C63.1672,29.7196 63.6304,29.1136 63.6304,29.1136 L74.036,15.4752 C74.4976,14.8696 74.036,14.2644 74.036,14.2644 L63.7188,0.7788 C63.2556,0.174 62.4976,0.174 62.4976,0.174 L32.5028,0.174" id="Fill-3" fill="#B32018"></path>
                        <path d="M84.3976,0.7388 C84.3976,0.7388 84.914,0.1788 85.6728,0.1788 C85.6728,0.1788 93.8452,0.1796 94.0252,0.1744 C94.1328,0.17 95.9624,0.1744 94.2656,1.876 C92.3244,3.8252 82.5236,13.9124 82.5236,13.9124 C82.5236,13.9124 81.9928,14.4588 81.5312,13.8524 L77.8264,8.9772 C77.8264,8.9772 77.3664,8.3708 77.8828,7.8108 L84.3976,0.7388" id="Fill-4" fill="#B32018"></path>
                        <path d="M84.3164,29.144 C84.3164,29.144 84.8256,29.7088 85.5852,29.7096 L94.0116,29.7196 C94.0116,29.7196 95.8428,29.7196 94.6032,28.352 C93.2244,26.8304 82.5204,15.688 82.5204,15.688 C82.5204,15.688 81.992,15.1384 81.5428,15.7536 L77.8256,20.83 C77.8256,20.83 77.3752,21.4456 77.8844,22.0104 L84.3164,29.144" id="Fill-6" fill="#B32018"></path>
                        <path d="M66.1008,0.174 C66.1008,0.174 65.3428,0.174 65.8048,0.78 C65.8048,0.78 74.9148,12.7068 75.4056,13.3968 C76.3892,14.7792 76.4336,14.7792 75.4056,16.3584 C74.604,17.5872 65.75,29.11 65.75,29.11 C65.75,29.11 65.2852,29.7144 66.0444,29.7144 L68.5288,29.7144 C68.9836,29.7144 69.328,29.462 69.532,29.2 C69.7336,28.9412 79.7572,15.392 79.7572,15.392 C79.7572,15.392 80.21,14.7792 79.7484,14.1736 L69.5376,0.78 C69.5376,0.78 69.0764,0.174 68.3164,0.174 L66.1008,0.174" id="Fill-7" fill="#4D4021"></path>
                    </g>
                </g>
            </g>
        </g>
    </g>
</svg>